<?xml version="1.0" encoding="UTF-8"?>
<svg id="Layer_1" data-name="Layer 1" xmlns="http://www.w3.org/2000/svg" viewBox="0 0 568.25 568.25">
  <defs>
    <style>
      .cls-1 {
        fill: #c27e57;
      }
    </style>
  </defs>
  <path class="cls-1" d="M191.83,308.64c48.15.91,96.31,1.81,144.46,2.72v5.83h-147.21c.92-2.85,1.83-5.7,2.75-8.55Z"/>
  <path class="cls-1" d="M345.84,325.84c-3.94-3.07-7.22-5.49-9.27-6.97l-7.93-5.95c-2.04-1.1-11.07-5.99-13.33-7.21-10.09-5.46-11.71-6.34-14.88-7.86-7.54-3.62-12.7-5.55-15.86-6.64-2.28-.79-4.22-1.4-5.62-1.82,4.61-2.79,10.22-6.36,16.46-10.74,2.08-1.46,10.35-7.39,19.84-15.26,18.31-15.19,31.68-30.02,40.97-41.58,13.18-16.42,19.77-24.62,24.15-37.3,6.56-18.97,5.1-35.87,4.28-44.33-.64-6.66-1.66-16.34-6.73-27.82-.86-1.94-4.23-9.37-11.01-18.04-3.16-4.04-14.16-17.44-33.63-27.52-7.55-3.91-25.64-12.99-50.02-11.92-17.96.79-30.67,6.71-42.85,12.38-10.45,4.87-27.39,12.87-43.34,30.27-12.54,13.68-18.74,26.91-22.15,34.33-5.39,11.73-6.87,19.37-7.34,22.03-1.27,7.29-1.3,13.69-1.31,17.66,0,2.73-.01,8.33.84,14.94.56,4.36,1.6,10.03,1.83,11.27.24,1.3.36,1.95.54,2.85.73,3.6,1.52,7.5,3.14,12.04,1.33,3.71,2.68,6.34,4.66,10.2.77,1.49,1.53,2.9,2.53,4.51,1.49,2.4,2.76,4.03,3.03,4.37,1.71,2.2,2.66,2.96,3.84,4.3,3.63,4.1,3.03,6.24,6.27,10.67.82,1.12,1.61,2.02,5.54,5.61,4.77,4.36,7.64,6.99,13.21,11.46,6.13,4.93,9.7,7.81,15.12,11.41,3.42,2.27,8.37,5.54,15.37,8.93,5.52,2.67,10.4,4.51,14.14,5.75-2.46.92-5.98,2.35-10.08,4.39-3.91,1.95-6.65,3.69-9.27,5.2-6.42,3.71-12.53,7.46-18.34,11.21,0,0-4.59,3.29-10.09,8.35-53.81,49.49-61.86,111.9-61.45,122.6.27,7.2,1.25,14.5,1.25,14.5.7,5.24,1.5,9.18,1.76,10.41,3.89,18.73,11.09,32.35,14.42,37.4,1.29,1.95,2.75,3.97,2.75,3.97.73,1.01,3.02,4.14,6.04,7.65,4.56,5.3,8.49,8.79,14.6,14.21,2.53,2.25,4.93,4.28,8.26,6.5,1.91,1.27,3.42,2.13,4.12,2.52,4.21,2.37,15.3,8.39,19.35,10.63,8.04,4.47,6.36,4.1,12.22,7.17,13.52,7.07,16.92,6.1,18.34,5.46,1.66-.74,3.55-2.34,6.83-2.43,1.65-.05,3.01.29,3.92.6,10.9,1.53,24.44,2.47,39.87,1.33,22-1.62,39.81-6.83,52.02-11.38,0,0,0,0,0,0,.13-.06,36.24-16.29,55.95-55.34,2.91-5.77,10.1-20.33,11.92-39.13h0c.2,0,1.31-23.65,0-35.99-4.12-38.71-43.08-69.07-74.89-93.87ZM188.88,226.72c-12.42-19.24-14.98-37.94-15.43-41.57-.19-1.58-.3-2.74-.36-3.39-.59-5.96-2.13-26.83,7.95-50.75,1.96-4.65,10.56-24.15,30.88-41.27,10.19-8.59,19.29-13.18,24.76-15.9,12.07-5.99,38.34-19.03,68.18-12.54,9.85,2.14,17.25,5.8,20.18,7.34,13.29,6.99,21.22,15.98,25.38,20.79,6.71,7.77,10.7,14.82,12.54,18.34,1.55,2.97,4.08,7.89,6.11,14.68,3.38,11.27,3.22,20.51,3.06,26.9-.12,4.86-.42,14.26-3.97,25.68-2.38,7.66-5.57,14.15-10.39,22.01-14.59,23.78-31.67,39.81-46.78,53.81-6.67,6.18-12.34,10.82-16.75,14.22-.68.53-2.95,2.27-6.79,5.04-5.33,3.85-12.89,9.12-22.53,15.21-3.88-1.16-9.04-2.94-14.89-5.67-4.57-2.13-7.72-3.99-11.37-6.14-14.1-8.34-23.07-16.04-25.57-18.23-3.46-3.03-5.71-5.3-6.99-6.65-1.71-1.78-3.87-4.18-7.44-8.68-3.25-4.1-6.59-8.32-9.76-13.23ZM413.39,470.06c-.42,1.92-1.63,7.06-5.04,14.98-1.97,4.58-6.14,14.08-14.22,24.76-11.61,15.35-24.43,24.06-29.96,27.52-15.32,9.58-28.94,12.86-39.44,15.29-15.95,3.69-28.45,3.88-38.37,3.97-22.15.21-38.22-3.19-42.5-4.13-7.64-1.67-12.43-2.72-17.54-4.77-.82-.33-2.34-.96-5.04-2.32-9.31-4.67-18.76-9.42-29.08-17.98-4.62-3.83-15.55-13.05-24.31-27.97-1.01-1.72-3.9-6.77-6.73-13.76-1.93-4.78-4.29-10.7-5.5-18.65,0,0-.84-5.5-.76-11.62.09-6.99,12.52-58.13,41.12-107.01.89-1.51,5.46-9.23,12.86-17.31,2.94-3.21,8.63-7.93,9-8.26,3.36-2.95,2.48-2.02,8.04-6.8,1.36-1.17,2.82-2.43,4.97-3.97,1.56-1.12,2.86-1.95,3.9-2.59,13.56-8.34,24.53-12.7,24.53-12.7,1.67-.67,4.11-1.59,7.11-2.6,5.42,1.65,9.83,3.3,13.03,4.59,3.84,1.54,7.08,3.01,12.27,5.39,2.96,1.36,2.36,1.1,7.91,3.67,6.61,3.05,7.18,3.28,9.63,4.47,4.48,2.18,7.63,3.89,8.48,4.36,3.64,1.99,6.32,3.6,6.99,4.01,5.64,3.42,8.53,5.2,11.54,8.14,1.95,1.9,3.32,3.66,4.16,4.82,14.4,19.82,74.47,65.62,74.62,120.42,0,3.46-.21,9.07-1.68,16.05Z"/>
  <path class="cls-1" d="M372.09,449.89c.31,0,.61,0,.93,0-.32,0-.62,0-.93,0,0,0,0,0,0,0Z"/>
  <path class="cls-1" d="M319.05,72.11c-1.25-4.03-4.18-11.42-11.11-17.46-13.88-12.09-32.26-8.72-36.51-7.94-19.44,3.57-30.68,17.95-36.51,25.4-8.57,10.96-15.54,34.09-14.29,28.57-31.75,116.4-63.49,232.8-95.24,349.21,7.86-.27,35.22-.39,69.38-.43-.29-38.01-.22-72.83.04-103.95.55-64.65,1.66-81.23,2.75-94.01,4.56-53.37,12.77-87.37,18.34-107.31,3.57-12.76,7.04-23.28,9.63-30.73.88-2.38,6.71-17.6,19.26-20.64,1.63-.39,4.74-1.11,8.25,0,6.91,2.18,10.14,9.74,11.46,12.84,11.91,27.92,57.22,180.63,64.66,204.54,1.17,3.74,4.8,15.23,10.09,32.56,7.89,25.84,11.01,37.22,16.51,55.49,3.75,12.44,9.19,30.07,16.27,51.52,14.15.07,16.94.12.97.12,28.39.16,52.3.1,69.84,0-41.27-125.93-82.54-251.85-123.81-377.78Z"/>
  <path class="cls-1" d="M284.13,0C127.21,0,0,127.21,0,284.13s127.21,284.13,284.13,284.13,284.13-127.21,284.13-284.13S441.05,0,284.13,0ZM284.13,558.44c-151.5,0-274.31-122.81-274.31-274.31S132.63,9.81,284.13,9.81s274.31,122.81,274.31,274.31-122.81,274.31-274.31,274.31Z"/>
</svg>